<svg width="136" height="40" viewBox="0 0 136 40" fill="none" xmlns="http://www.w3.org/2000/svg">
<path d="M124.249 0.00013H10.7566C10.3429 0.00013 9.9342 0.00013 9.5216 0.00212999C9.17621 0.00412999 8.83358 0.00993997 8.48488 0.01483C7.72733 0.0227317 6.97157 0.081806 6.22416 0.191539C5.4778 0.303662 4.75482 0.515044 4.07967 0.818537C3.40534 1.1246 2.7892 1.52229 2.25358 1.99719C1.71514 2.47076 1.26632 3.01814 0.924356 3.61828C0.581453 4.21723 0.343683 4.85905 0.219258 5.52159C0.0936495 6.1833 0.0260586 6.85263 0.0170916 7.52359C0.00662229 7.83018 0.00551669 8.1378 0 8.44444V31.5586C0.00551669 31.8691 0.00662229 32.1699 0.0170916 32.4805C0.0260614 33.1514 0.0936522 33.8207 0.219258 34.4824C0.343339 35.1453 0.581124 35.7875 0.924356 36.3867C1.26616 36.9849 1.71505 37.5301 2.25358 38.001C2.78717 38.478 3.40371 38.876 4.07967 39.1797C4.75481 39.484 5.47772 39.6967 6.22416 39.8105C6.9717 39.9194 7.72738 39.9785 8.48488 39.9873C8.83358 39.9941 9.17621 39.998 9.5216 39.998C9.93419 40 10.343 40 10.7566 40H124.249C124.655 40 125.067 40 125.472 39.998C125.816 39.998 126.169 39.9941 126.512 39.9873C127.268 39.9789 128.023 39.9198 128.769 39.8105C129.518 39.6959 130.243 39.4833 130.921 39.1797C131.597 38.8758 132.213 38.4779 132.746 38.001C133.283 37.5282 133.733 36.9835 134.079 36.3867C134.42 35.7871 134.655 35.145 134.777 34.4824C134.903 33.8207 134.973 33.1515 134.987 32.4805C134.991 32.1699 134.991 31.8691 134.991 31.5586C135 31.1953 135 30.834 135 30.4648V9.53623C135 9.17002 135 8.80674 134.991 8.44444C134.991 8.1378 134.991 7.83018 134.987 7.52355C134.973 6.85253 134.903 6.18335 134.777 5.52155C134.655 4.8594 134.419 4.21762 134.079 3.61824C133.383 2.41532 132.278 1.43615 130.921 0.818447C130.243 0.515696 129.518 0.304369 128.769 0.191449C128.023 0.0812325 127.269 0.0221377 126.512 0.01469C126.169 0.00980997 125.816 0.00394999 125.472 0.00199999C125.067 0 124.655 0 124.249 0V0.00013Z" fill="#A6A6A6"/>
<path d="M9.54027 38.998C9.19662 38.998 8.86127 38.9941 8.52032 38.9874C7.81401 38.9793 7.10934 38.9251 6.41211 38.8254C5.76198 38.7267 5.13217 38.5433 4.54347 38.2811C3.96017 38.021 3.42815 37.68 2.96779 37.2712C2.50078 36.8671 2.11196 36.3985 1.81676 35.8839C1.5183 35.3659 1.31176 34.8107 1.20431 34.2376C1.08827 33.6218 1.0255 32.9991 1.01651 32.3749C1.00936 32.1654 1 31.4679 1 31.4679V8.51947C1 8.51947 1.00997 7.83262 1.01657 7.63083C1.02517 7.00764 1.08758 6.38594 1.20327 5.77109C1.31092 5.19642 1.51762 4.63961 1.81624 4.11994C2.11036 3.60566 2.49701 3.13669 2.96122 2.7312C3.4249 2.32186 3.95862 1.97911 4.54292 1.71547C5.13027 1.45408 5.75888 1.27193 6.4077 1.17511C7.10722 1.07434 7.81433 1.01986 8.52309 1.01213L9.54082 1H125.454L126.484 1.01262C127.186 1.01997 127.887 1.07396 128.58 1.17414C129.235 1.27217 129.87 1.45559 130.464 1.71838C131.635 2.2497 132.587 3.0903 133.188 4.12236C133.482 4.63845 133.686 5.19072 133.792 5.76042C133.909 6.38031 133.974 7.0069 133.988 7.6352C133.991 7.91653 133.991 8.21873 133.991 8.51947C134 8.892 134 9.24658 134 9.60407V30.3949C134 30.7558 134 31.1079 133.991 31.463C133.991 31.786 133.991 32.082 133.987 32.3866C133.974 33.0036 133.909 33.619 133.794 34.2278C133.689 34.8051 133.483 35.3646 133.185 35.8868C132.888 36.3959 132.501 36.8605 132.039 37.2634C131.579 37.6745 131.046 38.0175 130.461 38.2792C129.869 38.5434 129.234 38.7275 128.58 38.8254C127.882 38.9257 127.178 38.9798 126.471 38.9874C126.141 38.9941 125.795 38.998 125.459 38.998L124.237 39L9.54027 38.998Z" fill="#111111"/>
<path d="M32.0445 19.3003C32.0554 18.4657 32.2796 17.6473 32.6962 16.9213C33.1128 16.1954 33.7084 15.5854 34.4274 15.1483C33.9706 14.5031 33.368 13.9722 32.6675 13.5976C31.9669 13.2231 31.1877 13.0152 30.3917 12.9906C28.6937 12.8143 27.0476 13.9954 26.1823 13.9954C25.3003 13.9954 23.9681 13.0081 22.5335 13.0373C21.6056 13.0669 20.7013 13.3338 19.9087 13.8118C19.116 14.2899 18.4621 14.9629 18.0107 15.7651C16.0551 19.1136 17.5138 24.0346 19.3871 26.7412C20.3243 28.0666 21.4197 29.547 22.853 29.4945C24.2555 29.437 24.7793 28.61 26.4723 28.61C28.1496 28.61 28.6411 29.4945 30.1034 29.4611C31.6084 29.437 32.5566 28.1299 33.461 26.792C34.1344 25.8476 34.6526 24.8039 34.9964 23.6995C34.122 23.3338 33.3759 22.7216 32.8509 21.9393C32.326 21.157 32.0456 20.2392 32.0445 19.3003Z" fill="white"/>
<path d="M29.2828 11.2113C30.1034 10.2371 30.5077 8.98494 30.4098 7.7207C29.1561 7.85092 27.998 8.44348 27.1664 9.38031C26.7597 9.83798 26.4483 10.3704 26.2499 10.9472C26.0514 11.524 25.9699 12.1337 26.0099 12.7417C26.637 12.7481 27.2573 12.6137 27.8242 12.3486C28.3912 12.0835 28.8899 11.6946 29.2828 11.2113Z" fill="white"/>
<path d="M49.7754 26.1397H44.9892L43.8398 29.4961H41.8125L46.346 17.0781H48.4522L52.9857 29.4961H50.9238L49.7754 26.1397ZM45.4849 24.5908H49.2788L47.4085 19.1436H47.3562L45.4849 24.5908Z" fill="white"/>
<path d="M62.7759 24.9695C62.7759 27.7829 61.2532 29.5905 58.9554 29.5905C58.3733 29.6207 57.7944 29.4881 57.285 29.2079C56.7756 28.9278 56.3562 28.5114 56.075 28.0065H56.0315V32.4909H54.1523V20.4421H55.9713V21.948H56.0058C56.3001 21.4455 56.7265 21.0313 57.2398 20.7495C57.7531 20.4676 58.334 20.3287 58.9208 20.3474C61.2443 20.3474 62.7759 22.1638 62.7759 24.9695ZM60.8444 24.9695C60.8444 23.1365 59.8866 21.9314 58.4251 21.9314C56.9894 21.9314 56.0236 23.1618 56.0236 24.9695C56.0236 26.7937 56.9894 28.0154 58.4251 28.0154C59.8866 28.0154 60.8444 26.8191 60.8444 24.9695Z" fill="white"/>
<path d="M72.8501 24.9694C72.8501 27.7829 71.3275 29.5905 69.0296 29.5905C68.4475 29.6206 67.8687 29.488 67.3592 29.2079C66.8498 28.9278 66.4305 28.5114 66.1492 28.0065H66.1057V32.4909H64.2266V20.4421H66.0455V21.948H66.08C66.3742 21.4455 66.8007 21.0313 67.314 20.7495C67.8273 20.4676 68.4082 20.3287 68.995 20.3474C71.3186 20.3474 72.8501 22.1638 72.8501 24.9694ZM70.9186 24.9694C70.9186 23.1364 69.9608 21.9314 68.4993 21.9314C67.0636 21.9314 66.0978 23.1618 66.0978 24.9694C66.0978 26.7937 67.0636 28.0153 68.4993 28.0153C69.9608 28.0153 70.9186 26.8191 70.9186 24.9694H70.9186Z" fill="white"/>
<path d="M79.5096 26.0362C79.6488 27.2676 80.8584 28.0762 82.5114 28.0762C84.0953 28.0762 85.2349 27.2676 85.2349 26.1572C85.2349 25.1934 84.5476 24.6162 82.9203 24.2207L81.2929 23.833C78.9872 23.2822 77.9168 22.2158 77.9168 20.4854C77.9168 18.3428 79.8048 16.8711 82.4858 16.8711C85.1391 16.8711 86.958 18.3428 87.0192 20.4854H85.1223C85.0087 19.2461 83.9729 18.4981 82.4591 18.4981C80.9453 18.4981 79.9095 19.2549 79.9095 20.3565C79.9095 21.2344 80.5711 21.751 82.1895 22.1465L83.5729 22.4824C86.1492 23.0849 87.2197 24.1084 87.2197 25.9248C87.2197 28.248 85.3484 29.7031 82.3722 29.7031C79.5875 29.7031 77.7074 28.2822 77.5859 26.0361L79.5096 26.0362Z" fill="white"/>
<path d="M91.2777 18.3008V20.4434H93.0186V21.915H91.2777V26.9062C91.2777 27.6816 91.6263 28.043 92.3916 28.043C92.5982 28.0394 92.8046 28.0251 93.0097 28V29.4629C92.6657 29.5264 92.3159 29.5552 91.966 29.5488C90.1125 29.5488 89.3897 28.8603 89.3897 27.1045V21.915H88.0586V20.4434H89.3897V18.3008H91.2777Z" fill="white"/>
<path d="M94.0234 24.9707C94.0234 22.1221 95.7199 20.332 98.3653 20.332C101.02 20.332 102.708 22.122 102.708 24.9707C102.708 27.8271 101.029 29.6094 98.3653 29.6094C95.7031 29.6094 94.0234 27.8271 94.0234 24.9707ZM100.793 24.9707C100.793 23.0166 99.888 21.8633 98.3653 21.8633C96.8426 21.8633 95.9381 23.0254 95.9381 24.9707C95.9381 26.9326 96.8426 28.0771 98.3653 28.0771C99.888 28.0771 100.793 26.9326 100.793 24.9707H100.793Z" fill="white"/>
<path d="M104.258 20.442H106.05V21.983H106.094C106.215 21.5017 106.5 21.0764 106.901 20.7785C107.302 20.4806 107.794 20.3284 108.296 20.3473C108.512 20.3465 108.728 20.3698 108.939 20.4166V22.1549C108.666 22.0723 108.381 22.0343 108.095 22.0426C107.822 22.0316 107.55 22.0792 107.297 22.1821C107.045 22.285 106.818 22.4408 106.632 22.6386C106.446 22.8365 106.305 23.0719 106.22 23.3286C106.134 23.5852 106.106 23.8571 106.137 24.1256V29.4957H104.258L104.258 20.442Z" fill="white"/>
<path d="M117.606 26.8379C117.353 28.4814 115.735 29.6094 113.664 29.6094C111.001 29.6094 109.348 27.8447 109.348 25.0137C109.348 22.1738 111.01 20.332 113.585 20.332C116.118 20.332 117.711 22.0527 117.711 24.7978V25.4346H111.245V25.5469C111.215 25.8801 111.257 26.2157 111.368 26.5316C111.48 26.8474 111.658 27.1362 111.891 27.3787C112.124 27.6213 112.406 27.8121 112.719 27.9384C113.033 28.0647 113.369 28.1236 113.707 28.1113C114.151 28.1525 114.597 28.0508 114.978 27.8213C115.359 27.5919 115.655 27.247 115.821 26.8379L117.606 26.8379ZM111.253 24.1357H115.83C115.847 23.8361 115.801 23.5363 115.695 23.2551C115.59 22.9739 115.426 22.7174 115.215 22.5016C115.004 22.2858 114.751 22.1155 114.47 22.0013C114.19 21.8871 113.888 21.8314 113.585 21.8379C113.279 21.8361 112.976 21.8942 112.692 22.009C112.409 22.1237 112.152 22.2928 111.935 22.5064C111.718 22.72 111.546 22.974 111.429 23.2537C111.312 23.5333 111.253 23.8331 111.253 24.1357V24.1357Z" fill="white"/>
<path d="M45.2496 7.73138C45.6436 7.70342 46.0389 7.76228 46.4071 7.90371C46.7753 8.04515 47.1071 8.26563 47.3787 8.54925C47.6503 8.83288 47.8548 9.17258 47.9776 9.54385C48.1004 9.91512 48.1383 10.3087 48.0886 10.6962C48.0886 12.6025 47.0468 13.6982 45.2496 13.6982H43.0703V7.73138H45.2496ZM44.0074 12.8544H45.145C45.4265 12.871 45.7082 12.8254 45.9696 12.7208C46.2311 12.6161 46.4656 12.4552 46.6562 12.2496C46.8468 12.0441 46.9886 11.7991 47.0714 11.5324C47.1542 11.2658 47.1758 10.9843 47.1347 10.7084C47.1728 10.4335 47.149 10.1538 47.065 9.88911C46.9809 9.62445 46.8387 9.38144 46.6486 9.17751C46.4584 8.97358 46.225 8.81378 45.965 8.70954C45.7051 8.6053 45.425 8.55922 45.145 8.57459H44.0074V12.8544Z" fill="white"/>
<path d="M49.1469 11.4458C49.1183 11.1498 49.1525 10.8513 49.2474 10.5692C49.3423 10.2871 49.4957 10.0278 49.6979 9.8078C49.9001 9.58782 50.1465 9.41206 50.4214 9.29178C50.6963 9.1715 50.9935 9.10938 51.2941 9.10938C51.5947 9.10938 51.892 9.1715 52.1669 9.29178C52.4417 9.41206 52.6882 9.58782 52.8904 9.8078C53.0925 10.0278 53.246 10.2871 53.3409 10.5692C53.4358 10.8513 53.47 11.1498 53.4414 11.4458C53.4705 11.742 53.4367 12.041 53.3421 12.3235C53.2474 12.606 53.0941 12.8658 52.8918 13.0862C52.6896 13.3067 52.443 13.4828 52.1678 13.6033C51.8927 13.7239 51.5951 13.7861 51.2941 13.7861C50.9932 13.7861 50.6956 13.7239 50.4204 13.6033C50.1452 13.4828 49.8986 13.3067 49.6964 13.0862C49.4942 12.8658 49.3408 12.606 49.2462 12.3235C49.1515 12.041 49.1177 11.742 49.1469 11.4458ZM52.5171 11.4458C52.5171 10.4697 52.0737 9.89888 51.2956 9.89888C50.5145 9.89888 50.0751 10.4697 50.0751 11.4458C50.0751 12.4297 50.5145 12.9961 51.2956 12.9961C52.0737 12.996 52.5171 12.4257 52.5171 11.4458H52.5171Z" fill="white"/>
<path d="M59.1496 13.6982H58.2174L57.2764 10.3818H57.2053L56.2682 13.6982H55.3449L54.0898 9.19531H55.0013L55.8169 12.6313H55.8841L56.8202 9.19531H57.6822L58.6184 12.6313H58.6895L59.5011 9.19531H60.3997L59.1496 13.6982Z" fill="white"/>
<path d="M61.457 9.19487H62.3221V9.9102H62.3892C62.5031 9.65328 62.6952 9.43791 62.9388 9.2941C63.1824 9.15029 63.4652 9.08522 63.748 9.10795C63.9695 9.09148 64.192 9.12451 64.3988 9.20461C64.6057 9.2847 64.7917 9.40981 64.9431 9.57065C65.0944 9.73149 65.2073 9.92395 65.2732 10.1338C65.3391 10.3436 65.3565 10.5654 65.3239 10.7827V13.6977H64.4254V11.0059C64.4254 10.2823 64.1074 9.92241 63.4428 9.92241C63.2924 9.91548 63.1423 9.9408 63.0027 9.99663C62.8631 10.0525 62.7373 10.1375 62.6341 10.2459C62.5308 10.3542 62.4524 10.4834 62.4044 10.6246C62.3563 10.7657 62.3397 10.9154 62.3556 11.0635V13.6978H61.457L61.457 9.19487Z" fill="white"/>
<path d="M66.7539 7.4375H67.6525V13.6982H66.7539V7.4375Z" fill="white"/>
<path d="M68.9008 11.4458C68.8722 11.1499 68.9064 10.8513 69.0013 10.5692C69.0962 10.2872 69.2497 10.0278 69.4519 9.80782C69.6541 9.58783 69.9005 9.41206 70.1754 9.29178C70.4504 9.17151 70.7476 9.10938 71.0482 9.10938C71.3489 9.10938 71.6461 9.17151 71.921 9.29178C72.196 9.41206 72.4424 9.58783 72.6446 9.80782C72.8468 10.0278 73.0003 10.2872 73.0952 10.5692C73.1901 10.8513 73.2243 11.1499 73.1957 11.4458C73.2249 11.7421 73.191 12.0411 73.0963 12.3236C73.0017 12.6061 72.8483 12.8659 72.646 13.0863C72.4438 13.3067 72.1972 13.4829 71.922 13.6034C71.6468 13.7239 71.3492 13.7862 71.0482 13.7862C70.7473 13.7862 70.4497 13.7239 70.1745 13.6034C69.8993 13.4829 69.6527 13.3067 69.4504 13.0863C69.2482 12.8659 69.0948 12.6061 69.0001 12.3236C68.9055 12.0411 68.8716 11.7421 68.9008 11.4458ZM72.271 11.4458C72.271 10.4698 71.8276 9.89897 71.0495 9.89897C70.2684 9.89897 69.829 10.4698 69.829 11.4458C69.829 12.4297 70.2684 12.9961 71.0495 12.9961C71.8276 12.9961 72.271 12.4258 72.271 11.4458H72.271Z" fill="white"/>
<path d="M74.1445 12.4258C74.1445 11.6152 74.7548 11.1479 75.838 11.0815L77.0714 11.0112V10.6226C77.0714 10.147 76.7534 9.87841 76.1392 9.87841C75.6376 9.87841 75.29 10.0605 75.1903 10.3789H74.3203C74.4121 9.60547 75.1478 9.10938 76.1807 9.10938C77.3222 9.10938 77.966 9.67138 77.966 10.6226V13.6992H77.101V13.0664H77.0299C76.8856 13.2934 76.683 13.4784 76.4427 13.6027C76.2024 13.7269 75.9331 13.7858 75.6623 13.7734C75.4711 13.7931 75.2779 13.7729 75.0952 13.7142C74.9124 13.6555 74.7441 13.5596 74.6011 13.4326C74.4581 13.3056 74.3436 13.1504 74.2649 12.977C74.1863 12.8036 74.1453 12.6158 74.1445 12.4258ZM77.0714 12.041V11.6645L75.9595 11.7349C75.3325 11.7764 75.0481 11.9873 75.0481 12.3843C75.0481 12.7895 75.4035 13.0254 75.8924 13.0254C76.0356 13.0397 76.1803 13.0254 76.3178 12.9833C76.4553 12.9412 76.5829 12.8722 76.6929 12.7804C76.8029 12.6885 76.8931 12.5757 76.9581 12.4487C77.0231 12.3217 77.0617 12.183 77.0714 12.041Z" fill="white"/>
<path d="M79.1484 11.4448C79.1484 10.022 79.8881 9.12062 81.0384 9.12062C81.323 9.10765 81.6054 9.17506 81.8527 9.31495C82.0999 9.45485 82.3018 9.66145 82.4347 9.91062H82.5019V7.4375H83.4005V13.6982H82.5394V12.9868H82.4683C82.3251 13.2343 82.1162 13.4383 81.8642 13.5768C81.6121 13.7153 81.3266 13.783 81.0385 13.7724C79.8802 13.7725 79.1484 12.8711 79.1484 11.4448ZM80.0767 11.4448C80.0767 12.3999 80.5319 12.9746 81.2932 12.9746C82.0506 12.9746 82.5187 12.3916 82.5187 11.4487C82.5187 10.5103 82.0457 9.91896 81.2932 9.91896C80.5368 9.91896 80.0767 10.4976 80.0767 11.4448H80.0767Z" fill="white"/>
<path d="M87.1156 11.4458C87.087 11.1498 87.1212 10.8513 87.2161 10.5692C87.311 10.2871 87.4645 10.0278 87.6666 9.8078C87.8688 9.58782 88.1152 9.41206 88.3901 9.29178C88.665 9.1715 88.9623 9.10938 89.2629 9.10938C89.5635 9.10938 89.8607 9.1715 90.1356 9.29178C90.4105 9.41206 90.6569 9.58782 90.8591 9.8078C91.0613 10.0278 91.2147 10.2871 91.3096 10.5692C91.4045 10.8513 91.4387 11.1498 91.4101 11.4458C91.4393 11.742 91.4055 12.041 91.3108 12.3235C91.2162 12.606 91.0628 12.8658 90.8606 13.0862C90.6584 13.3067 90.4118 13.4828 90.1366 13.6033C89.8614 13.7239 89.5638 13.7861 89.2629 13.7861C88.9619 13.7861 88.6643 13.7239 88.3891 13.6033C88.114 13.4828 87.8674 13.3067 87.6651 13.0862C87.4629 12.8658 87.3096 12.606 87.2149 12.3235C87.1203 12.041 87.0865 11.742 87.1156 11.4458ZM90.4858 11.4458C90.4858 10.4697 90.0425 9.89888 89.2644 9.89888C88.4833 9.89888 88.0439 10.4697 88.0439 11.4458C88.0439 12.4297 88.4833 12.9961 89.2644 12.9961C90.0425 12.996 90.4858 12.4257 90.4858 11.4458Z" fill="white"/>
<path d="M92.6172 9.19487H93.4822V9.9102H93.5494C93.6633 9.65328 93.8554 9.43791 94.099 9.2941C94.3425 9.15029 94.6254 9.08522 94.9081 9.10795C95.1297 9.09148 95.3521 9.12451 95.559 9.20461C95.7659 9.2847 95.9519 9.40981 96.1032 9.57065C96.2546 9.73149 96.3674 9.92395 96.4334 10.1338C96.4993 10.3436 96.5166 10.5654 96.4841 10.7827V13.6977H95.5855V11.0059C95.5855 10.2823 95.2676 9.92241 94.603 9.92241C94.4526 9.91548 94.3024 9.9408 94.1628 9.99663C94.0232 10.0525 93.8975 10.1375 93.7942 10.2459C93.6909 10.3542 93.6126 10.4834 93.5645 10.6246C93.5165 10.7657 93.4999 10.9154 93.5158 11.0635V13.6978H92.6172V9.19487Z" fill="white"/>
<path d="M101.56 8.07422V9.21582H102.546V9.96436H101.56V12.2798C101.56 12.7515 101.756 12.958 102.204 12.958C102.318 12.9576 102.433 12.9508 102.546 12.9375V13.6777C102.385 13.7063 102.222 13.7215 102.058 13.7231C101.058 13.7231 100.66 13.3755 100.66 12.5073V9.96432H99.9375V9.21578H100.66V8.07422H101.56Z" fill="white"/>
<path d="M103.773 7.4375H104.664V9.91895H104.735C104.855 9.65963 105.052 9.44304 105.301 9.29869C105.549 9.15434 105.836 9.08926 106.124 9.11231C106.344 9.10045 106.564 9.13684 106.769 9.21888C106.973 9.30092 107.157 9.42659 107.307 9.58693C107.457 9.74727 107.569 9.93832 107.635 10.1465C107.702 10.3546 107.721 10.5747 107.692 10.791V13.6982H106.792V11.0102C106.792 10.291 106.453 9.92675 105.819 9.92675C105.664 9.91422 105.509 9.93522 105.363 9.98827C105.218 10.0413 105.086 10.1252 104.977 10.2339C104.868 10.3426 104.784 10.4737 104.731 10.6178C104.679 10.7619 104.658 10.9157 104.672 11.0683V13.6982H103.773L103.773 7.4375Z" fill="white"/>
<path d="M112.932 12.4835C112.81 12.895 112.545 13.251 112.184 13.4891C111.824 13.7273 111.39 13.8324 110.959 13.7862C110.659 13.794 110.361 13.7372 110.085 13.6197C109.809 13.5022 109.563 13.3267 109.363 13.1056C109.163 12.8845 109.014 12.6229 108.926 12.3391C108.838 12.0553 108.814 11.756 108.855 11.462C108.815 11.1671 108.84 10.8672 108.927 10.5825C109.015 10.2978 109.163 10.0351 109.362 9.81199C109.561 9.58891 109.807 9.41074 110.081 9.28953C110.356 9.16833 110.654 9.10691 110.955 9.10945C112.222 9.10945 112.986 9.96545 112.986 11.3794V11.6895H109.771V11.7393C109.757 11.9046 109.778 12.0709 109.832 12.2277C109.887 12.3844 109.974 12.5281 110.089 12.6496C110.203 12.771 110.341 12.8676 110.495 12.933C110.649 12.9984 110.816 13.0312 110.983 13.0293C111.198 13.0549 111.416 13.0166 111.609 12.9194C111.802 12.8222 111.961 12.6704 112.067 12.4834L112.932 12.4835ZM109.771 11.0323H112.071C112.082 10.8812 112.061 10.7294 112.01 10.5867C111.958 10.4439 111.877 10.3135 111.771 10.2036C111.666 10.0937 111.538 10.0069 111.397 9.94876C111.255 9.89059 111.103 9.86233 110.95 9.8658C110.794 9.86387 110.64 9.89273 110.496 9.95067C110.352 10.0086 110.221 10.0945 110.112 10.2032C110.002 10.3119 109.915 10.4413 109.856 10.5837C109.798 10.7261 109.769 10.8786 109.771 11.0323H109.771Z" fill="white"/>
</svg>
