<svg width="135" height="40" viewBox="0 0 135 40" fill="none" xmlns="http://www.w3.org/2000/svg">
<path fill-rule="evenodd" clip-rule="evenodd" d="M129.998 40H5.00184C2.24512 40 0 37.7456 0 35V5C0 2.24439 2.24512 0 5.00184 0H129.998C132.752 0 135 2.24439 135 5V35C135 37.7456 132.752 40 129.998 40Z" fill="#111111"/>
<path fill-rule="evenodd" clip-rule="evenodd" d="M129.998 0.800499C132.31 0.800499 134.203 2.68828 134.203 5V35C134.203 37.3117 132.323 39.1995 129.998 39.1995H5.00184C2.68967 39.1995 0.797215 37.3117 0.797215 35V5C0.797215 2.68828 2.67725 0.800499 5.00184 0.800499H129.998ZM129.998 0H5.00184C2.24512 0 0 2.25436 0 5V35C0 37.7556 2.24512 40 5.00184 40H129.998C132.752 40 135 37.7556 135 35V5C135 2.25436 132.752 0 129.998 0Z" fill="#A6A6A6"/>
<path d="M71.1191 13.232C70.2176 13.232 69.4577 12.9153 68.8567 12.2918C68.2606 11.6858 67.9278 10.8504 67.9427 9.99755C67.9427 9.08732 68.2507 8.31675 68.8567 7.70578C69.4552 7.08233 70.2151 6.76562 71.1167 6.76562C72.0082 6.76562 72.7682 7.08233 73.3791 7.70578C73.9851 8.3367 74.2931 9.10727 74.2931 9.99755C74.2831 10.9103 73.9752 11.6808 73.3791 12.2893C72.7806 12.9177 72.0207 13.232 71.1191 13.232ZM44.2946 13.232C43.413 13.232 42.6481 12.9202 42.0222 12.3043C41.4013 11.6908 41.0859 10.9153 41.0859 10C41.0859 9.08483 41.4013 8.30927 42.0222 7.6958C42.6357 7.07984 43.4006 6.76812 44.2946 6.76812C44.7317 6.76812 45.1564 6.8554 45.5637 7.03246C45.9636 7.20453 46.2889 7.43894 46.5298 7.72572L46.5894 7.79804L45.9164 8.46139L45.8468 8.37909C45.4669 7.92523 44.9577 7.70328 44.2847 7.70328C43.6837 7.70328 43.1597 7.91775 42.7275 8.34169C42.2929 8.76812 42.0719 9.32672 42.0719 10.0025C42.0719 10.6783 42.2929 11.2369 42.7275 11.6634C43.1597 12.0873 43.6837 12.3018 44.2847 12.3018C44.9255 12.3018 45.4644 12.0873 45.8841 11.6634C46.1324 11.414 46.2864 11.0649 46.3411 10.6235H44.1829V9.69081H47.2674L47.2798 9.7756C47.3022 9.93271 47.3245 10.0948 47.3245 10.2444C47.3245 11.1048 47.0663 11.8005 46.5546 12.3143C45.9735 12.9227 45.2135 13.232 44.2946 13.232ZM79.9605 13.0998H79.0093L76.0961 8.41899L76.121 9.26188V13.0973H75.1698V6.90029H76.2551L76.2849 6.94767L79.0242 11.3566L78.9993 10.5162V6.90029H79.9605V13.0998ZM63.9716 13.0998H63.008V7.83296H61.3366V6.90029H65.6405V7.83296H63.9691V13.0998H63.9716ZM60.5518 13.0998H59.5906V6.90029H60.5518V13.0998ZM55.1501 13.0998H54.189V7.83296H52.5176V6.90029H56.8215V7.83296H55.1501V13.0998ZM51.9091 13.0898H48.2236V6.90029H51.9091V7.83296H49.1872V9.5337H51.6434V10.4564H49.1872V12.1571H51.9091V13.0898ZM69.562 11.6509C69.9916 12.0823 70.5132 12.2993 71.1191 12.2993C71.7425 12.2993 72.2516 12.0873 72.6763 11.6509C73.0985 11.227 73.3121 10.6709 73.3121 10C73.3121 9.32922 73.0985 8.77061 72.6788 8.34917C72.2491 7.91774 71.7251 7.70079 71.1216 7.70079C70.4983 7.70079 69.9891 7.91276 69.5669 8.34917C69.1447 8.77311 68.9312 9.32922 68.9312 10C68.9312 10.6709 69.1423 11.2295 69.562 11.6509Z" fill="white"/>
<path fill-rule="evenodd" clip-rule="evenodd" d="M67.8548 21.7544C65.5078 21.7544 63.6054 23.5425 63.6054 26.0088C63.6054 28.4527 65.5202 30.2632 67.8548 30.2632C70.2017 30.2632 72.1041 28.4627 72.1041 26.0088C72.1041 23.5425 70.2017 21.7544 67.8548 21.7544ZM67.8548 28.5774C66.5708 28.5774 65.4656 27.5101 65.4656 25.9988C65.4656 24.4652 66.5733 23.4203 67.8548 23.4203C69.1388 23.4203 70.2439 24.4652 70.2439 25.9988C70.2464 27.52 69.1388 28.5774 67.8548 28.5774ZM58.5837 21.7544C56.2368 21.7544 54.3344 23.5425 54.3344 26.0088C54.3344 28.4527 56.2492 30.2632 58.5837 30.2632C60.9307 30.2632 62.833 28.4627 62.833 26.0088C62.833 23.5425 60.9282 21.7544 58.5837 21.7544ZM58.5837 28.5774C57.2997 28.5774 56.1946 27.5101 56.1946 25.9988C56.1946 24.4652 57.3022 23.4203 58.5837 23.4203C59.8677 23.4203 60.9729 24.4652 60.9729 25.9988C60.9729 27.52 59.8677 28.5774 58.5837 28.5774ZM47.5518 23.0537V24.8542H51.8558C51.7242 25.8642 51.3914 26.6098 50.8823 27.121C50.2514 27.7544 49.2779 28.4427 47.5618 28.4427C44.9168 28.4427 42.848 26.2981 42.848 23.6422C42.848 20.9864 44.9168 18.8417 47.5618 18.8417C48.9898 18.8417 50.0304 19.4078 50.8028 20.131L52.0744 18.8542C51.0015 17.8218 49.5734 17.0312 47.5717 17.0312C43.9433 17.0312 40.8984 19.9988 40.8984 23.6322C40.8984 27.2756 43.9408 30.2332 47.5717 30.2332C49.5312 30.2332 51.0015 29.5899 52.1638 28.3779C53.3484 27.1884 53.7234 25.5101 53.7234 24.1559C53.7234 23.7345 53.6911 23.3554 53.6241 23.0337H47.5494C47.5518 23.0313 47.5518 23.0537 47.5518 23.0537ZM92.6752 24.4552C92.3201 23.5001 91.2472 21.7445 89.0468 21.7445C86.8662 21.7445 85.0533 23.4677 85.0533 25.9988C85.0533 28.3879 86.8464 30.2532 89.2579 30.2532C91.1951 30.2532 92.3226 29.0637 92.787 28.3654L91.349 27.3978C90.8722 28.1086 90.2091 28.5749 89.2678 28.5749C88.3166 28.5749 87.651 28.141 87.209 27.2856L92.8739 24.929C92.8739 24.9315 92.6752 24.4552 92.6752 24.4552ZM86.8985 25.8766C86.8538 24.2332 88.1701 23.3978 89.1114 23.3978C89.8539 23.3978 90.4723 23.7644 90.6834 24.2981L86.8985 25.8766ZM82.2965 29.9988H84.1567V17.5001H82.2965V29.9988ZM79.2418 22.6996H79.1747C78.755 22.1983 77.9578 21.7445 76.9395 21.7445C74.8261 21.7445 72.879 23.6123 72.879 26.0113C72.879 28.4003 74.8161 30.2457 76.9395 30.2457C77.9454 30.2457 78.755 29.7894 79.1747 29.2781H79.2418V29.8891C79.2418 31.5125 78.3775 32.3879 76.9842 32.3879C75.8443 32.3879 75.1365 31.5649 74.8484 30.8766L73.2316 31.5549C73.696 32.6771 74.9353 34.0662 76.9818 34.0662C79.1623 34.0662 81.0101 32.7769 81.0101 29.6323V21.9988H79.2517V22.6996C79.2542 22.6996 79.2418 22.6996 79.2418 22.6996ZM77.1059 28.5774C75.822 28.5774 74.7491 27.5001 74.7491 26.0113C74.7491 24.5101 75.822 23.4228 77.1059 23.4228C78.3775 23.4228 79.3635 24.5225 79.3635 26.0113C79.3759 27.5001 78.38 28.5774 77.1059 28.5774ZM101.385 17.5001H96.937V29.9988H98.7972V25.2657H101.388C103.446 25.2657 105.47 23.7669 105.47 21.3879C105.47 19.0088 103.454 17.5001 101.385 17.5001ZM101.44 23.52H98.7947V19.2308H101.44C102.833 19.2308 103.62 20.3854 103.62 21.3754C103.62 22.3554 102.823 23.52 101.44 23.52ZM112.926 21.732C111.575 21.732 110.182 22.333 109.606 23.6422L111.255 24.3305C111.61 23.6422 112.26 23.4078 112.948 23.4078C113.912 23.4078 114.886 23.9864 114.908 25.0188V25.151C114.575 24.9614 113.845 24.6721 112.971 24.6721C111.19 24.6721 109.384 25.6497 109.384 27.4826C109.384 29.1609 110.845 30.2382 112.472 30.2382C113.721 30.2382 114.409 29.6721 114.838 29.0163H114.905V29.9839H116.699V25.1958C116.699 22.9664 115.049 21.732 112.926 21.732ZM112.693 28.5774C112.084 28.5774 111.232 28.2781 111.232 27.5101C111.232 26.5425 112.295 26.1759 113.202 26.1759C114.021 26.1759 114.409 26.3529 114.895 26.5973C114.761 27.7195 113.818 28.5674 112.693 28.5774ZM123.24 21.9988L121.104 27.4203H121.037L118.824 21.9988H116.823L120.143 29.5774L118.251 33.7894H120.188L125.297 21.9988H123.24ZM106.496 29.9988H108.356V17.5001H106.496V29.9988Z" fill="white"/>
<path fill-rule="evenodd" clip-rule="evenodd" d="M10.392 7.53218C10.1039 7.8439 9.9375 8.32021 9.9375 8.94365V31.0559C9.9375 31.6793 10.1039 32.1556 10.4019 32.4549L10.4789 32.5222L22.8171 20.1332V19.8564L10.469 7.46484L10.392 7.53218Z" fill="url(#paint0_linear_824_2544)"/>
<path fill-rule="evenodd" clip-rule="evenodd" d="M26.9199 24.2763L22.8047 20.1441V19.8548L26.9199 15.7227L27.0093 15.7775L31.8771 18.5556C33.2704 19.3436 33.2704 20.6454 31.8771 21.4434L27.0093 24.2214L26.9199 24.2763Z" fill="url(#paint1_linear_824_2544)"/>
<path fill-rule="evenodd" clip-rule="evenodd" d="M27.0104 24.2219L22.8058 20L10.3906 32.4663C10.8451 32.9551 11.6076 33.01 12.4594 32.5337L27.0104 24.2219Z" fill="url(#paint2_linear_824_2544)"/>
<path fill-rule="evenodd" clip-rule="evenodd" d="M27.0104 15.7784L12.4594 7.47918C11.6076 6.9904 10.8426 7.05774 10.3906 7.54651L22.8058 20.0004L27.0104 15.7784Z" fill="url(#paint3_linear_824_2544)"/>
<path opacity="0.2" fill-rule="evenodd" clip-rule="evenodd" d="M26.919 24.1328L12.4672 32.3772C11.6601 32.8435 10.9399 32.8111 10.4754 32.3871L10.3984 32.4645L10.4754 32.5318C10.9399 32.9532 11.6601 32.9881 12.4672 32.5218L27.0183 24.2226L26.919 24.1328Z" fill="#111111"/>
<path opacity="0.12" fill-rule="evenodd" clip-rule="evenodd" d="M31.8758 21.2993L26.9062 24.1322L26.9957 24.2219L31.8634 21.4439C32.5613 21.0449 32.904 20.5212 32.904 20C32.8618 20.4788 32.5066 20.9327 31.8758 21.2993Z" fill="#111111"/>
<path opacity="0.25" fill-rule="evenodd" clip-rule="evenodd" d="M12.4608 7.62427L31.8795 18.7016C32.5103 19.0582 32.8655 19.5245 32.9201 20.0008C32.9201 19.4796 32.5774 18.9559 31.8795 18.5569L12.4608 7.47963C11.0675 6.67913 9.9375 7.34746 9.9375 8.94597V9.0906C9.9375 7.48961 11.0675 6.83375 12.4608 7.62427Z" fill="white"/>
<defs>
<linearGradient id="paint0_linear_824_2544" x1="21.7104" y1="8.70508" x2="1.93599" y2="13.9524" gradientUnits="userSpaceOnUse">
<stop stop-color="#00A0FF"/>
<stop offset="0.00657" stop-color="#00A1FF"/>
<stop offset="0.2601" stop-color="#00BEFF"/>
<stop offset="0.5122" stop-color="#00D2FF"/>
<stop offset="0.7604" stop-color="#00DFFF"/>
<stop offset="1" stop-color="#00E3FF"/>
</linearGradient>
<linearGradient id="paint1_linear_824_2544" x1="33.694" y1="19.9995" x2="9.59631" y2="19.9995" gradientUnits="userSpaceOnUse">
<stop stop-color="#FFE000"/>
<stop offset="0.4087" stop-color="#FFBD00"/>
<stop offset="0.7754" stop-color="#FFA500"/>
<stop offset="1" stop-color="#FF9C00"/>
</linearGradient>
<linearGradient id="paint2_linear_824_2544" x1="24.7241" y1="22.2973" x2="8.76135" y2="49.0538" gradientUnits="userSpaceOnUse">
<stop stop-color="#FF3A44"/>
<stop offset="1" stop-color="#C31162"/>
</linearGradient>
<linearGradient id="paint3_linear_824_2544" x1="7.26434" y1="0.179171" x2="14.386" y2="12.1291" gradientUnits="userSpaceOnUse">
<stop stop-color="#32A071"/>
<stop offset="0.0685" stop-color="#2DA771"/>
<stop offset="0.4762" stop-color="#15CF74"/>
<stop offset="0.8009" stop-color="#06E775"/>
<stop offset="1" stop-color="#00F076"/>
</linearGradient>
</defs>
</svg>
