<svg width="56" height="22" viewBox="0 0 56 22" fill="none" xmlns="http://www.w3.org/2000/svg">
<path fill-rule="evenodd" clip-rule="evenodd" d="M8.61316 16.6644C6.67676 17.4348 4.52307 17.3423 2.65366 16.4085L2.65309 16.4079C0.607987 15.4035 -0.202507 13.3015 0.0423243 11.0653C0.0574087 10.9253 0.0800353 10.787 0.106143 10.6487H2.79929C2.74846 11.0749 2.73139 11.5048 2.74823 11.9338C2.68199 13.1936 3.52645 14.3066 4.71501 14.5259C5.82451 14.8504 7.01028 14.7245 8.03471 14.1736C9.11503 13.5604 9.53856 11.2922 7.98078 10.4516C7.08391 10.0384 6.15296 9.71117 5.19945 9.47393C5.10121 9.44201 5.00316 9.40948 4.90531 9.37633C4.45998 9.25179 4.02636 9.08535 3.60978 8.87899C2.41422 8.30019 1.61071 7.09175 1.50841 5.71859C1.16959 2.9421 2.79813 1.20331 4.68368 0.506463C6.59984 -0.24722 8.72645 -0.156625 10.5776 0.757547C12.603 1.74248 13.4048 3.80331 13.1622 5.99578C13.1495 6.11039 13.1321 6.22439 13.1118 6.33721H10.443C10.4875 5.94136 10.5025 5.54251 10.4877 5.14425C10.5493 3.90355 9.71233 2.81125 8.54065 2.60308C7.44248 2.28487 6.27009 2.40821 5.25456 2.94878C4.18589 3.5498 3.76643 5.77378 5.30852 6.59861C6.19658 7.00395 7.11774 7.32486 8.06083 7.55748C8.71914 7.75516 9.35836 8.01667 9.97017 8.33858C10.7818 8.79457 11.3796 9.57776 11.6248 10.5062C11.7205 10.7785 11.7861 11.0613 11.8203 11.3492C12.1673 13.7088 10.7997 15.9754 8.61316 16.6644ZM49.0421 21.9991C48.5107 21.9991 47.9835 21.9024 47.4838 21.7135C46.7545 21.451 46.1977 20.8268 45.998 20.048C45.7419 19.1038 45.9039 18.0893 46.4395 17.2831C46.7891 16.8285 47.2137 16.443 47.6932 16.1447C47.1355 15.838 46.652 15.4024 46.2794 14.8711C45.5514 15.8557 44.5445 16.5746 43.4023 16.9253C42.8749 17.0713 42.3321 17.1485 41.7865 17.1551C40.4511 17.1846 39.1869 16.5273 38.4036 15.3963C38.3496 15.3236 38.3032 15.2884 38.262 15.2884C38.2208 15.2884 38.1773 15.3369 38.1401 15.3878C38.1254 15.409 38.1096 15.4292 38.0926 15.4485C37.3816 16.2501 36.4533 16.8053 35.4319 17.0399C35.0889 17.1188 34.7389 17.1595 34.3876 17.1612C33.9591 17.1616 33.5329 17.0958 33.1228 16.9659C31.9632 16.5887 31.0977 15.5729 30.873 14.3252C30.6384 13.2726 30.5621 12.1881 30.6467 11.1109C30.7566 8.61699 31.1701 6.14793 31.8772 3.76334C31.9689 3.45343 32.0908 3.34851 32.36 3.34851H32.418C32.6866 3.36186 32.9679 3.36853 33.2783 3.36853C33.5626 3.36853 33.8707 3.36307 34.2484 3.35094H34.2867C34.4027 3.35094 34.4717 3.37095 34.5048 3.41644C34.5379 3.46192 34.5396 3.54865 34.5002 3.69967C34.3542 4.25549 34.2175 4.82462 34.0854 5.37446L34.0848 5.3772C34.0181 5.65618 33.9485 5.94489 33.8788 6.22625L33.8724 6.25842C33.8382 6.35966 33.8316 6.46885 33.8533 6.57379H34.6296H34.6336H35.4087C35.8943 6.57379 36.2883 6.57015 36.6492 6.56288H36.6758C36.7663 6.5505 36.8576 6.57724 36.9288 6.63689C36.9849 6.72082 37.0058 6.82508 36.9868 6.92558C36.9647 7.37609 36.9647 7.82752 36.9868 8.27802C37.0015 8.36466 36.9818 8.45376 36.9323 8.52487C36.8643 8.58101 36.7772 8.60535 36.6915 8.59216H36.6752C36.6018 8.59216 36.5262 8.59136 36.4463 8.5905H36.4462H36.4461C36.3563 8.58957 36.2609 8.58853 36.1565 8.58853H35.6721H35.5967H35.0252C34.6191 8.58853 34.2867 8.5831 33.9873 8.57158H33.9067C33.5586 8.57158 33.4425 8.69285 33.41 9.09979C33.4023 9.18914 33.3944 9.27873 33.3863 9.36845V9.37881C33.2472 10.5596 33.2119 11.7513 33.2806 12.9389C33.2906 13.4037 33.4318 13.8551 33.6868 14.2361C33.9216 14.5283 34.275 14.687 34.6394 14.6637C34.9187 14.658 35.1958 14.6112 35.4627 14.5248C36.2025 14.2593 36.8688 13.8087 37.4039 13.2124C37.4923 13.1156 37.5236 12.9763 37.4857 12.8485C37.4857 12.8368 37.4839 12.8255 37.4821 12.8144C37.4811 12.8077 37.48 12.8011 37.4794 12.7945C37.1584 10.035 37.4891 7.23534 38.4424 4.64032C38.8665 3.35693 39.6739 2.25003 40.7457 1.48296C41.3538 1.10298 42.0459 0.89481 42.7542 0.878906C43.9759 0.925503 44.9831 1.89523 45.1277 3.16414C45.3699 4.87267 45.1443 6.61797 44.4768 8.19798C43.6432 10.2521 42.2554 12.008 40.4829 13.2512C40.2659 13.4077 40.2386 13.5223 40.3622 13.7619C40.7047 14.4612 41.4058 14.8877 42.1566 14.8535C42.2286 14.8535 42.3034 14.8505 42.3783 14.8444C43.5404 14.7279 44.6181 14.1592 45.3981 13.2512C45.4976 13.1626 45.5423 13.0238 45.5141 12.8904C45.3697 11.9874 45.347 11.0677 45.4468 10.1581C45.5322 9.03004 45.7465 7.91674 46.085 6.84184C46.1273 6.71022 46.1506 6.63806 46.3461 6.63806H46.3571C46.5967 6.64231 46.8595 6.64416 47.1594 6.64416H47.1596C47.4253 6.64416 47.6979 6.64416 47.9612 6.64114C48.2247 6.63806 48.5107 6.63806 48.788 6.63806C48.7777 6.67368 48.7631 6.70769 48.7445 6.73936C48.7331 6.75834 48.7239 6.77874 48.7172 6.8C48.1381 8.53091 47.9244 10.3723 48.0906 12.1977C48.1147 13.144 48.5932 14.0139 49.3635 14.5115C49.756 14.7379 50.2009 14.8456 50.6486 14.8226C50.8593 14.8226 51.0758 14.8084 51.2855 14.7945L51.292 14.7941H51.2967C51.4521 14.7844 51.4475 14.6862 51.4429 14.5909V14.5254C51.5274 12.6281 51.3599 10.7277 50.9451 8.87845C50.812 8.27593 50.637 7.72788 50.4516 7.14692L50.4478 7.1354L50.4474 7.13386L50.4473 7.13373C50.3953 6.9705 50.3433 6.80733 50.2912 6.63991H52.475C52.8759 6.63991 52.985 6.71207 53.0882 7.04562C53.5692 8.63221 53.8543 10.2766 53.9364 11.9388C53.9593 12.3717 53.954 12.8077 53.9482 13.2688V13.269V13.2691L53.948 13.2845C53.948 13.3933 53.9466 13.5037 53.9452 13.616V13.6162V13.6166C53.9437 13.7326 53.9423 13.8506 53.9423 13.9711C54.6494 13.5696 55.2111 13.1996 56.0001 12.6562V14.6582C55.3905 15.1292 54.7489 15.5531 54.0803 15.9264C53.914 15.9938 53.7978 16.1528 53.7792 16.3382C53.6354 17.7937 53.124 19.1831 52.2975 20.364C51.5187 21.4139 50.3129 22.0196 49.0421 21.9991ZM51.2315 16.8516L51.04 16.9007L50.9101 16.9335L50.895 16.9371L50.8552 16.9471H50.8551C50.6517 16.9986 50.4581 17.0475 50.2707 17.1045C50.047 17.1697 49.8284 17.2528 49.6169 17.3532C49.1249 17.5388 48.7056 17.8896 48.4246 18.3508C48.1999 18.7774 48.2292 19.301 48.5 19.6972C48.6917 19.8787 48.9443 19.9737 49.2026 19.9617C49.3618 19.9628 49.5196 19.9309 49.6668 19.8676C49.9544 19.7379 50.2008 19.5255 50.3775 19.2551C50.8229 18.527 51.114 17.7077 51.2315 16.8522V16.8516ZM41.7167 3.68917C41.8663 3.50346 42.0783 3.38474 42.3091 3.35742C42.3785 3.35785 42.4471 3.37184 42.5116 3.39866C42.8191 3.5242 42.8539 3.84322 42.8632 4.15919C42.8867 5.08654 42.759 6.01132 42.4855 6.89385C42.0053 8.46282 41.1105 9.85784 39.9043 10.9178C39.938 9.84804 40.0349 8.7814 40.1944 7.72412C40.3534 6.6791 40.6477 5.66157 41.0693 4.69957C41.2249 4.32466 41.4443 3.98233 41.7167 3.68917ZM17.5324 17.154C17.4047 17.154 17.2725 17.1503 17.1396 17.1424C16.3549 17.1153 15.5879 16.891 14.9036 16.4886C14.2237 16.0592 13.6737 15.4378 13.3168 14.6959C12.7684 13.5165 12.5719 12.192 12.753 10.8944C12.87 9.64455 13.3908 8.47364 14.2295 7.57454C15.0692 6.72843 16.1908 6.25691 17.3572 6.25968C18.012 6.26825 18.6611 6.38872 19.2787 6.61628C20.0694 6.88051 20.7599 7.3996 21.2512 8.09911C21.7214 8.81754 22.0225 9.6419 22.1302 10.5051C22.2211 11.2641 22.2355 12.0311 22.1732 12.7933C22.1503 12.8079 22.1387 12.8229 22.1383 12.8382C22.1383 12.8521 22.147 12.8661 22.1656 12.8794C22.177 12.8714 22.1872 12.8616 22.1958 12.8503L22.2108 12.834C22.7589 12.7348 23.2844 12.5291 23.7599 12.2275C23.9189 12.1396 23.9131 12.017 23.9067 11.8872V11.8096V11.0776C23.9067 10.7819 23.9069 10.484 23.9071 10.1846V10.1842V10.1838C23.9078 9.1079 23.9085 8.01272 23.9003 6.93165C23.8855 6.82671 23.9094 6.71986 23.967 6.63267C24.0313 6.57919 24.1134 6.55497 24.195 6.56532H24.2339C24.524 6.57623 24.828 6.5811 25.1651 6.5811C25.4679 6.5811 25.7934 6.57684 26.2198 6.56772H26.2419C26.318 6.5562 26.3953 6.57814 26.4554 6.62842C26.5017 6.69565 26.5189 6.78013 26.503 6.86128C26.4898 7.09297 26.4925 7.32769 26.4953 7.57651L26.4954 7.58421V7.93415C26.5626 7.85325 26.6252 7.77493 26.686 7.69876L26.6862 7.69858L26.699 7.6825C26.836 7.51144 26.9653 7.35012 27.1052 7.20334C27.6686 6.59693 28.4504 6.26671 29.2588 6.29364C29.4723 6.2945 29.6855 6.31089 29.8969 6.34275C30.0461 6.36456 30.0571 6.44646 30.0565 6.55984V8.33629V8.92636C29.9391 8.91281 29.8217 8.8958 29.7075 8.87922L29.6979 8.87787C29.4585 8.83627 29.2166 8.81237 28.9739 8.80626C28.8496 8.80553 28.7255 8.81649 28.6032 8.83905C27.574 9.03371 26.8974 9.81425 26.6469 11.097C26.5432 11.6462 26.4932 12.205 26.4977 12.7648V13.8565C26.4977 14.762 26.4977 15.6978 26.5047 16.6178C26.5178 16.7066 26.497 16.7972 26.4467 16.8701C26.3862 16.9194 26.3093 16.9413 26.2332 16.9308H26.203C25.8758 16.9223 25.5375 16.918 25.1981 16.918C24.8588 16.918 24.5228 16.9223 24.177 16.9302H24.1532C24.082 16.9387 24.0105 16.9169 23.9548 16.8695C23.9067 16.8005 23.8871 16.7142 23.9003 16.6299C23.9091 16.0943 23.908 15.5679 23.9069 15.0149V15.0145L23.9067 14.9172V14.9142V14.2653C23.7787 14.3069 23.6511 14.3562 23.5267 14.4042H23.5267V14.4043L23.4924 14.4175C23.2032 14.5471 22.8983 14.634 22.5862 14.6758C21.9001 14.7458 21.2762 15.1215 20.8742 15.7069C20.0264 16.692 18.7982 17.2238 17.5324 17.154ZM17.6379 8.49233C16.8667 8.49775 16.1516 8.91511 15.7425 9.59854C15.4891 10.0449 15.3365 10.5459 15.2963 11.0632C15.106 12.1478 15.3198 13.2675 15.8939 14.1927C16.307 14.7541 16.9494 15.0788 17.6269 15.0684C18.106 15.0783 18.5713 14.9012 18.9323 14.5717C17.657 14.1359 16.8427 12.8321 16.9742 11.4362C16.9824 10.8671 17.1772 10.3183 17.5259 9.88119C17.9117 9.4573 18.4128 9.16744 18.9613 9.05092C18.943 9.0349 18.9264 9.01949 18.911 9.0052L18.9108 9.00507C18.8959 8.99127 18.8821 8.97851 18.869 8.96718L18.8587 8.95781C18.8225 8.92472 18.7905 8.89563 18.7576 8.86957C18.4343 8.61841 18.0407 8.4858 17.6379 8.49233ZM19.466 10.8457H19.5043V10.8463C19.8077 10.8463 19.9737 11.038 20.0444 11.4692C20.0531 11.5212 20.0597 11.5742 20.0657 11.6224L20.0658 11.6226L20.0671 11.6329L20.07 11.6572L20.0688 11.6851C20.0694 11.6908 20.0704 11.6965 20.0714 11.7021C20.073 11.7115 20.0746 11.7206 20.0746 11.7293L20.0653 11.8155C20.0584 11.8804 20.0508 11.9465 20.0439 12.0071L20.0363 12.0745C20.0288 12.1492 20.0211 12.2224 20.0136 12.2948L20.0133 12.2977L20.013 12.2998C20.0011 12.4149 19.9892 12.5281 19.9783 12.6421C19.9649 12.7646 19.9273 12.8192 19.8489 12.8192C19.8033 12.8167 19.7584 12.8062 19.7161 12.7883C19.2216 12.6094 18.8993 12.1108 18.9253 11.5644C18.941 11.1362 19.148 10.8609 19.466 10.8457Z" fill="white"/>
</svg>
