<svg xmlns="http://www.w3.org/2000/svg" width="600" height="542" fill="none"><mask id="authorize_svg__a" width="261" height="261" x="251" y="87" maskUnits="userSpaceOnUse"><path fill="#E8E8EB" d="M405.021 87C319.957 87 251 156.108 251 241.358c0 45.39 14.855 81.828 41.586 105.98l218.709-218.661C483.956 100.506 437.708 87 405.021 87"></path></mask><g fill="#F1F1F2" mask="url(#authorize_svg__a)"><path d="M259.47 366.262 531.206 93.947l6.535 6.549L266.004 372.81zm-27.724 0L503.482 93.947l6.534 6.549L238.28 372.81zm-27.724 0L475.758 93.947l6.535 6.549L210.556 372.81zm-27.724 0L460.177 81.78l6.534 6.548-283.878 284.484zm-27.723 0L449.36 64.834l6.535 6.55L155.109 372.81zm-27.724 0 294.851-295.48 6.534 6.55-294.85 295.479zm-27.722 0L390.61 68.146l6.534 6.549L99.663 372.81zm-27.725 0L371.228 59.785l6.534 6.55L71.938 372.81z"></path></g><mask id="authorize_svg__b" width="261" height="261" x="286" y="146" maskUnits="userSpaceOnUse"><path fill="#fff" d="M392.979 407C478.043 407 547 337.892 547 252.642c0-45.39-14.855-81.828-41.586-105.98L286.705 365.323C314.044 393.494 360.292 407 392.979 407"></path></mask><g fill="#fff" mask="url(#authorize_svg__b)"><path d="M538.527 127.739 266.79 400.054l-6.535-6.548L531.993 121.19zm27.724.001L294.515 400.055l-6.534-6.548L559.717 121.19zm27.726 0L322.241 400.056l-6.534-6.55 271.736-272.315zm27.723 0L337.82 412.224l-6.533-6.55 283.878-284.483zm27.724 0L348.637 429.169l-6.534-6.548L642.89 121.192zm27.723 0-294.85 295.48-6.535-6.55 294.851-295.479zm27.724 0L407.389 425.855l-6.534-6.55L698.337 121.19zm27.724 0L426.771 434.216l-6.534-6.549 305.824-306.476z"></path></g><path fill="#1D222B" d="M502.045 387.976H75.955c-1.095 0-1.955-.879-1.955-1.996 0-1.118.86-1.997 1.955-1.997h426.09c1.095 0 1.955.879 1.955 1.997 0 1.117-.9 1.996-1.955 1.996"></path><path fill="#fff" d="M381.332 211.611H107.531v174.062h273.801z"></path><path fill="#1D222B" d="M381.334 387.2H107.533a1.516 1.516 0 0 1-1.533-1.53V211.608c0-.857.674-1.53 1.533-1.53h273.801c.858 0 1.532.673 1.532 1.53V385.67c0 .857-.674 1.53-1.532 1.53m-272.269-6.06a3 3 0 0 0 3 3h264.736a3 3 0 0 0 3-3V216.137a3 3 0 0 0-3-3H112.065a3 3 0 0 0-3 3z"></path><path fill="#F54C60" d="M381.332 211.611H107.531v44.142h273.801z"></path><path fill="#1D222B" d="M381.334 257.249H107.533A1.516 1.516 0 0 1 106 255.72v-44.112c0-.857.674-1.53 1.533-1.53h273.801c.858 0 1.532.673 1.532 1.53v44.112c0 .856-.674 1.529-1.532 1.529m-272.269-6.059a3 3 0 0 0 3 3h264.736a3 3 0 0 0 3-3v-35.053a3 3 0 0 0-3-3H112.065a3 3 0 0 0-3 3z"></path><path fill="#1D222B" d="M314.914 211.487H203.009c-.858 0-1.532.673-1.532 1.529v138.852c0 .857.674 1.53 1.532 1.53h111.905c.858 0 1.533-.673 1.533-1.53V213.016c0-.826-.675-1.529-1.533-1.529"></path><path fill="#1D222B" d="M253.766 387.201h-6.743a1.517 1.517 0 0 1-1.533-1.529c0-.857.675-1.53 1.533-1.53h6.743a.74.74 0 0 0 .552-.214c5.517-5.078 10.39-10.554 15.08-15.846C282.24 353.643 294.378 340 315.833 340c.858 0 1.533.673 1.533 1.529 0 .857-.675 1.53-1.533 1.53-20.076 0-31.233 12.542-44.137 27.042-4.75 5.353-9.654 10.86-15.294 16.06a3.82 3.82 0 0 1-2.636 1.04"></path><path fill="#fff" d="M446.68 167.466H212.449v174.062H446.68z"></path><path fill="#1D222B" d="M446.711 343.059H212.45a1.516 1.516 0 0 1-1.533-1.53V167.467c0-.857.674-1.53 1.533-1.53h234.231c.858 0 1.532.673 1.532 1.53v174.062c.031.857-.674 1.53-1.502 1.53M213.982 337a3 3 0 0 0 3 3h225.166a3 3 0 0 0 3-3V171.996a3 3 0 0 0-3-3H216.982a3 3 0 0 0-3 3z"></path><path fill="#F54C60" d="M446.68 167.466H212.449v44.143H446.68z"></path><path fill="#1D222B" d="M448.242 210.137a3 3 0 0 1-3 3.002H213.917a3 3 0 0 1-3-3v-41.202a3 3 0 0 1 3-3h231.298a3 3 0 0 1 3 2.998zm-234.26-3.057a3 3 0 0 0 3 3h225.166a3 3 0 0 0 3-3v-35.084a3 3 0 0 0-3-3H216.982a3 3 0 0 0-3 3zm103.384 182.106v-7.03a1.533 1.533 0 1 0-3.065 0v7.03a1.532 1.532 0 0 0 3.065 0"></path><path fill="#1D222B" d="M320.891 384.139h-10.115v3.059h10.115z"></path><!-- SVG truncated for brevity -->
</svg> 