<svg width="120" height="40" viewBox="0 0 120 40" fill="none" xmlns="http://www.w3.org/2000/svg">
  <rect width="40" height="40" rx="8" fill="#22C55E"/>
  <path d="M10 20C10 14.4772 14.4772 10 20 10C25.5228 10 30 14.4772 30 20C30 25.5228 25.5228 30 20 30C14.4772 30 10 25.5228 10 20Z" fill="white"/>
  <path d="M16 20C16 17.7909 17.7909 16 20 16C22.2091 16 24 17.7909 24 20C24 22.2091 22.2091 24 20 24C17.7909 24 16 22.2091 16 20Z" fill="#22C55E"/>
  <path d="M48 15.5V25H50.5V21.5H54.5V19.5H50.5V17.5H55V15.5H48Z" fill="#22C55E"/>
  <path d="M57 15.5V25H64V23H59.5V15.5H57Z" fill="#22C55E"/>
  <path d="M65 15.5V25H67.5V21.5H71.5V19.5H67.5V17.5H72V15.5H65Z" fill="#22C55E"/>
  <path d="M73 15.5V25H75.5V15.5H73Z" fill="#22C55E"/>
  <path d="M77 15.5V25H79.5V21L83 25H86L82 20.5L86 15.5H83L79.5 19.5V15.5H77Z" fill="#22C55E"/>
  <path d="M87 15.5V25H89.5V15.5H87Z" fill="#22C55E"/>
  <path d="M91 15.5V25H93.5V19L97.5 25H100V15.5H97.5V21.5L93.5 15.5H91Z" fill="#22C55E"/>
  <path d="M101 15.5V17.5H104V25H106.5V17.5H109.5V15.5H101Z" fill="#22C55E"/>
</svg>